<svg width="40" height="40" viewBox="0 0 40 40" fill="none" xmlns="http://www.w3.org/2000/svg">
<path d="M3.33331 3.33331H6.23331C8.03331 3.33331 9.44998 4.88331 9.29998 6.66665L7.91665 23.2666C7.86263 23.9097 7.94279 24.5571 8.15204 25.1676C8.36128 25.7781 8.69506 26.3384 9.13221 26.8132C9.56937 27.288 10.1004 27.6667 10.6916 27.9255C11.2828 28.1843 11.9213 28.3175 12.5666 28.3166H30.3166C32.7166 28.3166 34.8166 26.35 35 23.9666L35.9 11.4666C36.1 8.69998 34 6.44998 31.2166 6.44998H9.69998M15 13.3333H35M27.0833 36.6666C27.6358 36.6666 28.1658 36.4472 28.5565 36.0565C28.9472 35.6658 29.1666 35.1358 29.1666 34.5833C29.1666 34.0308 28.9472 33.5009 28.5565 33.1102C28.1658 32.7195 27.6358 32.5 27.0833 32.5C26.5308 32.5 26.0009 32.7195 25.6102 33.1102C25.2195 33.5009 25 34.0308 25 34.5833C25 35.1358 25.2195 35.6658 25.6102 36.0565C26.0009 36.4472 26.5308 36.6666 27.0833 36.6666ZM13.75 36.6666C14.3025 36.6666 14.8324 36.4472 15.2231 36.0565C15.6138 35.6658 15.8333 35.1358 15.8333 34.5833C15.8333 34.0308 15.6138 33.5009 15.2231 33.1102C14.8324 32.7195 14.3025 32.5 13.75 32.5C13.1974 32.5 12.6675 32.7195 12.2768 33.1102C11.8861 33.5009 11.6666 34.0308 11.6666 34.5833C11.6666 35.1358 11.8861 35.6658 12.2768 36.0565C12.6675 36.4472 13.1974 36.6666 13.75 36.6666V36.6666Z" stroke="#D1403B" stroke-width="2.5" stroke-miterlimit="10" stroke-linecap="round" stroke-linejoin="round"/>
</svg>
